# xmcd
#
# Track frame offsets:
#	150
#	22857
#	42274
#	71406
#	89329
#	108058
#	124746
#	146385
#	161920
#	178598
#	193386
#	212834
#	228554
#	248741
#	263754
#	281774
#	293908
#	312550
#	329184
#
# Disc length: 4762 seconds
#
# Revision: 0
# Processed by: cddbd v1.5.2PL0 Copyright (c) Steve Scherf et al.
# Submitted via: EasyCDDAExtractor 12.0.0.1
#
DISCID=23129813
DTITLE=Various Artist - Top 50 [CD1)
DYEAR=2009
DGENRE=80's
TTITLE0=Bronski Beat - Smalltown Boy
TTITLE1=Daniel Balvoine - L'aziza
TTITLE2=Tears For Fears - Shout
TTITLE3=Level 42 - Lessons In Love
TTITLE4=Talk Talk - Such A Shame
TTITLE5=Womack and Womack - Teardrops
TTITLE6=Black - Wonderful Life
TTITLE7=Pauline Ester - Oui Je L'adore
TTITLE8=Philippe Lafontaine - Coeur De Loup
TTITLE9=Captain Sensible - Wot !
TTITLE10=Jean-Pierre Francois - Je Te Survivrai
TTITLE11=Luna Parker - Tes États D'âme Eric
TTITLE12=Claudia Phillips and The Kicks - Quel Souci La Boétie !...
TTITLE13=L'affaire Louis' Trio - Chic Planet
TTITLE14=Alisha - Baby Talk
TTITLE15=Francis Lalanne - On Se Retrouvera
TTITLE16=Patricia Kaas - Mon Mec À Moi
TTITLE17=Charlelie Couture - Come Un Avion Sans Aile
TTITLE18=Five Letters - Ma Keen Dawn
EXTD=
EXTT0=
EXTT1=
EXTT2=
EXTT3=
EXTT4=
EXTT5=
EXTT6=
EXTT7=
EXTT8=
EXTT9=
EXTT10=
EXTT11=
EXTT12=
EXTT13=
EXTT14=
EXTT15=
EXTT16=
EXTT17=
EXTT18=
PLAYORDER=
